<svg width="126" height="126" viewBox="0 0 126 126" fill="none" xmlns="http://www.w3.org/2000/svg">
<g clip-path="url(#clip0_2_1302)">
<path d="M63 10.5C34.02 10.5 10.5 34.02 10.5 63C10.5 91.98 34.02 115.5 63 115.5C91.98 115.5 115.5 91.98 115.5 63C115.5 34.02 91.98 10.5 63 10.5ZM63 105C39.8475 105 21 86.1525 21 63C21 39.8475 39.8475 21 63 21C86.1525 21 105 39.8475 105 63C105 86.1525 86.1525 105 63 105ZM63 39.375C49.9275 39.375 39.375 49.9275 39.375 63C39.375 76.0725 49.9275 86.625 63 86.625C76.0725 86.625 86.625 76.0725 86.625 63C86.625 49.9275 76.0725 39.375 63 39.375ZM63 68.25C60.1125 68.25 57.75 65.8875 57.75 63C57.75 60.1125 60.1125 57.75 63 57.75C65.8875 57.75 68.25 60.1125 68.25 63C68.25 65.8875 65.8875 68.25 63 68.25Z" fill="#7CA934"/>
</g>
<defs>
<clipPath id="clip0_2_1302">
<rect width="126" height="126" fill="white"/>
</clipPath>
</defs>
</svg>
