<svg width="151" height="48" viewBox="0 0 151 48" fill="none" xmlns="http://www.w3.org/2000/svg">
<path fill-rule="evenodd" clip-rule="evenodd" d="M25.3607 0.0727231C20.9599 0.30013 17.0334 1.25916 13.5165 2.96571C11.391 3.99703 9.82196 5.09217 8.47481 6.48469C6.144 8.89392 4.79459 11.9805 4.36067 15.8953C4.19332 17.4045 4.44031 19.579 4.94164 21.0111C5.27103 21.9519 5.63989 22.4934 6.62382 23.4806C7.58466 24.4447 8.53094 25.1242 9.4295 25.4953C10.9279 26.1142 14.2367 27.192 16.5134 27.8028C20.9516 28.9936 22.6342 29.5533 24.5729 30.4839C26.3379 31.3312 26.9259 32.072 26.922 33.4433C26.92 34.1149 26.7285 35.0127 26.4866 35.4849C25.88 36.6687 23.8491 38.0091 21.8052 38.5749C18.9407 39.3677 16.2946 39.0736 14.9169 37.8093C13.7532 36.7413 13.1104 34.8005 13.2393 32.7439L13.2844 32.0241H6.79463H0.304819L0.258669 32.2616C0.0928021 33.1151 0.0036222 34.3754 0.000238927 35.9106C-0.00297084 37.4218 0.0244426 37.8101 0.18762 38.5611C0.583376 40.3822 1.3198 42.0127 2.39238 43.4424C3.20827 44.5302 3.67386 44.9918 4.52783 45.5603C6.9755 47.1896 11.0355 47.9984 16.7736 48C24.1 48.0019 29.4193 46.6374 33.6466 43.6717C34.6302 42.9818 37.0199 40.6236 37.792 39.5813C39.0875 37.8321 39.9757 36.0478 40.4541 34.2335C40.8231 32.8338 40.9215 32.0538 40.9179 30.5558C40.9108 27.5555 40.0626 25.474 38.0317 23.4736C36.2558 21.7243 34.3518 20.8332 30.4573 19.9285C26.0094 18.8952 22.3493 17.7003 20.5305 16.6876C19.3076 16.0068 18.4974 15.0943 18.3711 14.256C18.2987 13.7756 18.4498 12.9506 18.7164 12.3709C19.2948 11.1131 21.0319 9.95901 23.0798 9.47225C23.7334 9.31687 24.0194 9.29709 25.0583 9.33561C26.4513 9.38717 27.0017 9.51283 28.0279 10.0138C29.4416 10.7038 30.0706 11.7188 30.0799 13.3254C30.0824 13.7529 30.0546 14.2829 30.0183 14.5031L29.9521 14.9035L32.1463 14.9619C33.3532 14.994 36.2925 15.0082 38.6781 14.9933L43.0157 14.9664L43.2097 14.2322C43.7917 12.0311 43.8165 9.15864 43.2694 7.3228C42.7357 5.5317 41.6312 4.02156 40.1641 3.07695C39.8839 2.89661 39.2593 2.55865 38.7761 2.32589C35.8351 0.909625 33.0846 0.262559 29.179 0.0680578C27.3392 -0.0234923 27.2203 -0.0234046 25.3607 0.0727231ZM110.312 0.0677995C105.859 0.303239 101.796 1.31564 98.2873 3.06417C94.7003 4.85147 92.5541 6.85529 91.0403 9.83058C89.781 12.3059 89.1188 15.3339 89.2977 17.7997C89.4347 19.688 89.6867 20.7329 90.2807 21.8758C91.0107 23.2801 93.0274 24.9893 94.6973 25.6188C97.7075 26.7536 98.7719 27.0918 102.223 28.0092C106.916 29.2571 109.842 30.38 110.941 31.3555C111.608 31.9474 111.788 32.3251 111.834 33.2374C111.924 34.9975 111.28 36.1779 109.628 37.2839C108.047 38.3417 105.724 39.0187 103.672 39.0195C101.294 39.0205 99.7137 38.167 98.8443 36.4115C98.3737 35.4613 98.2181 34.6769 98.2093 33.2116L98.2023 32.0241H91.711C86.5769 32.0241 85.2195 32.0466 85.2181 32.132C85.2171 32.1914 85.1777 32.4926 85.1305 32.8014C84.957 33.9377 84.8715 36.1627 84.9617 37.1948C85.2098 40.0333 86.4572 42.7619 88.3835 44.6797C90.732 47.0179 95.5448 48.122 102.743 47.9742C107.716 47.872 111.395 47.2047 114.789 45.789C120.19 43.5361 124.536 38.5872 125.592 33.4888C126.695 28.1547 124.774 23.8293 120.284 21.543C119.063 20.9213 117.672 20.4577 115.557 19.9684C112.335 19.2227 110.036 18.5595 107.95 17.7739C105.104 16.7019 103.739 15.7295 103.387 14.5221C103.216 13.9371 103.33 13.0671 103.672 12.3433C104.276 11.0657 106.186 9.83957 108.202 9.4345C109.09 9.25606 110.911 9.30244 111.722 9.52424C112.579 9.75847 113.616 10.3014 114.071 10.7541C114.858 11.5385 115.18 12.7013 115.001 14.123C114.949 14.5394 114.924 14.8981 114.945 14.9202C114.966 14.9424 117.905 14.9762 121.476 14.9955L127.968 15.0305L128.187 14.0915C128.47 12.8809 128.491 12.7434 128.59 11.5343C128.747 9.61155 128.441 7.58372 127.781 6.16037C126.934 4.3349 125.577 3.12963 123.166 2.05936C120.796 1.00791 118.314 0.382867 115.626 0.160815C114.037 0.0296218 111.781 -0.00984536 110.312 0.0677995ZM52.0363 1.03952C52.0147 1.09895 49.8553 11.4469 47.2375 24.035L42.478 46.9226L60.3064 46.9443C70.112 46.9563 78.1443 46.9563 78.1558 46.9443C78.1766 46.9228 80.1883 37.5792 80.1883 37.5041C80.1883 37.4827 75.0896 37.4653 68.858 37.4653H57.5276L57.5759 37.2709C57.6025 37.1641 58.0584 35.1722 58.5889 32.8446C59.1195 30.5169 59.582 28.5835 59.6167 28.5481C59.6514 28.5127 64.3007 28.4738 69.9486 28.4617L80.2174 28.4398L81.1968 23.7327C81.7355 21.1439 82.1779 19.016 82.1799 19.0041C82.1819 18.9922 77.5576 18.9825 71.9036 18.9825C62.1226 18.9825 61.6237 18.9751 61.6237 18.8294C61.6237 18.6928 63.4706 10.4371 63.5844 10.065C63.6281 9.92205 64.2316 9.91384 74.6663 9.91384H85.702L86.6882 5.57773C87.2306 3.19294 87.6927 1.17193 87.7151 1.08659C87.7541 0.937868 87.0348 0.931564 69.9157 0.931564C55.7224 0.931564 52.0677 0.953675 52.0363 1.03952ZM137.908 1.16553C137.876 1.29422 135.619 11.6422 132.893 24.161L127.936 46.9226L134.699 46.9447C138.419 46.9568 141.482 46.9467 141.507 46.9221C141.575 46.8546 151.038 1.07088 151 0.99634C150.981 0.96067 148.042 0.931564 144.467 0.931564H137.967L137.908 1.16553Z" fill="white"/>
</svg>
